<?xml version="1.0" standalone="no"?>
<!DOCTYPE svg PUBLIC "-//W3C//DTD SVG 20010904//EN"
 "http://www.w3.org/TR/2001/REC-SVG-20010904/DTD/svg10.dtd">
<svg version="1.0" xmlns="http://www.w3.org/2000/svg"
 width="191.000000pt" height="119.000000pt" viewBox="0 0 191.000000 119.000000"
 preserveAspectRatio="xMidYMid meet">

<g transform="translate(0.000000,119.000000) scale(0.100000,-0.100000)"
fill="#000000" stroke="none">
<path d="M400 988 c-124 -19 -245 -113 -301 -232 -99 -213 8 -469 234 -559 39
-15 75 -21 142 -21 81 -1 97 2 158 31 121 58 227 195 243 316 l7 47 -232 0
-231 0 0 -45 0 -45 170 0 c94 0 170 -4 170 -8 0 -15 -57 -97 -86 -124 -16 -15
-55 -39 -88 -54 -51 -23 -68 -26 -130 -22 -270 18 -395 340 -205 530 67 67
125 91 219 92 96 0 155 -25 230 -99 50 -49 59 -54 105 -56 58 -3 59 2 15 65
-94 138 -258 210 -420 184z"/>
<path d="M1290 984 c-115 -31 -211 -112 -263 -222 -30 -63 -32 -74 -32 -177 0
-108 1 -113 38 -187 59 -120 187 -219 286 -222 l36 -1 3 154 3 155 -39 40
c-22 23 -42 51 -45 64 -7 28 9 86 28 102 12 10 13 6 8 -23 -8 -50 22 -77 83
-77 66 0 84 13 84 60 0 46 12 52 28 15 23 -50 15 -89 -28 -138 l-40 -45 0
-157 0 -158 39 6 c67 9 149 53 206 111 225 231 126 612 -182 697 -80 22 -138
23 -213 3z m224 -94 c76 -29 139 -88 177 -166 28 -56 33 -77 33 -142 1 -122
-51 -217 -153 -283 -75 -48 -81 -44 -81 61 0 89 1 91 35 128 56 62 70 128 41
195 -22 53 -110 120 -130 100 -3 -4 -6 -37 -6 -75 l0 -68 -29 0 c-32 0 -43 16
-35 52 2 13 2 40 -2 61 -5 33 -9 37 -27 31 -38 -12 -65 -37 -91 -85 -41 -74
-30 -155 28 -208 25 -23 26 -29 26 -128 0 -57 -3 -103 -6 -103 -3 0 -25 11
-48 25 -62 36 -112 91 -144 154 -23 49 -27 68 -27 146 1 110 22 163 93 234 87
87 226 116 346 71z"/>
</g>
</svg>
